<?xml version="1.0" encoding="utf-8"?>
<!-- Generator: Adobe Illustrator 21.0.0, SVG Export Plug-In . SVG Version: 6.00 Build 0)  -->
<svg version="1.1" id="Layer_1" xmlns="http://www.w3.org/2000/svg" xmlns:xlink="http://www.w3.org/1999/xlink" x="0px" y="0px"
	 viewBox="0 0 300.9 302.9" style="enable-background:new 0 0 300.9 302.9;" xml:space="preserve">
<style type="text/css">
	.st0{fill:#2C2B2A;}
	.st1{fill:#2B2A29;}
	.st2{fill:#292928;}
	.st3{fill:url(#SVGID_1_);}
	.st4{fill:url(#SVGID_2_);}
	.st5{fill:url(#SVGID_3_);}
	.st6{fill:#550D06;}
	.st7{fill:url(#SVGID_4_);}
	.st8{fill:url(#SVGID_5_);}
	.st9{fill:url(#SVGID_6_);}
	.st10{fill:url(#SVGID_7_);}
	.st11{fill:url(#SVGID_8_);}
	.st12{fill:url(#SVGID_9_);}
	.st13{fill:url(#SVGID_10_);}
</style>
<g>
	<linearGradient id="SVGID_1_" gradientUnits="userSpaceOnUse" x1="150.2172" y1="1.1128" x2="150.2172" y2="105.892">
		<stop  offset="0" style="stop-color:#93403E"/>
		<stop  offset="0.1919" style="stop-color:#7F302D"/>
		<stop  offset="0.4966" style="stop-color:#661C18"/>
		<stop  offset="0.7748" style="stop-color:#570F0B"/>
		<stop  offset="1" style="stop-color:#520B07"/>
	</linearGradient>
	<path class="st3" d="M227,19.3c-0.1-0.3-0.4-0.6-0.6-0.9c0,0,0,0,0,0c-0.6-0.4-1.2-0.8-1.8-1.1c-7.5-3.7-15.3-6.9-23.2-9.5
		c-7.8-2.5-15.8-4.5-23.9-5.8c-3.8-0.6-7.6-1.2-11.4-1.4c-3.7-0.2-7.3-0.6-11-0.7c-4.3-0.1-8.6,0.1-12.9,0.2
		c-4.1,0.1-8.1,0.5-12.2,1c-5.3,0.6-10.6,1.5-15.8,2.7c-13.3,2.9-26,7.5-38.2,13.5c-0.8,0.4-1.9,0.6-2.2,1.6c-1.1,3.9-1.5,8-1.4,12
		c0,2.5-0.1,5.1,0.1,7.6c0.1,1.8,0.5,3.6,0.8,5.4c0.2,1.1,0.2,2.2,0.5,3.2c0.6,2.6,1.1,5.4,2.3,7.8c0.8,3.2,2.1,6.3,3.9,9.1
		c0.1,0.4,0.2,0.8,0.4,1.1c3.8,7,8.5,13.3,14.3,18.8c6.1,5.8,12.9,10.4,20.4,14c9.2,4.3,18.8,6.8,29,7.6c5.4,0.4,10.7,0.3,16-0.3
		c6.9-0.8,13.6-2.5,20.1-5c14.5-5.7,26.3-14.8,35.4-27.5c2.2-3.1,4.3-6.3,5.7-10c2.5-4.4,4-9.1,5.1-14c0.3-1.1,0.6-2.2,0.8-3.2
		c0.8-4.3,1.4-8.7,1.1-13.1C228.5,27.9,227.7,23.6,227,19.3z M157.7,73.2c-0.8,0.8-1.4,1.7-2.2,2.5c-2.3,2.6-4.2,5.8-5.3,9.5
		c-0.3-0.7-3.1-6.6-4.7-8.5c-2.6-3-5.2-6-7.9-9c-1.3-1.4-3.8-4.6-4.3-5.4c-1.5-2.4-3.1-4.7-3.6-7.5c-0.6-3.6,1-6.9,3-9.9
		c0.2-0.3,0.6-1,0.8-1.3c1.8-2.7,4-4.6,6.1-7c1.7-1.9,3.4-3.7,5.1-5.6c2.2-1.9,3.7-4.3,5.3-7c2.1,3.7,4.6,6.6,7.5,9.4
		c1.7,1.9,3.5,3.7,5.1,5.6c1.7,2,3.3,4,4.8,6.2c1,1.4,2,2.9,2.5,4.6c0.5,1.6,0.7,3.2,0.4,4.9c-0.4,1.8-1.5,4.9-2.8,6.7
		C164.8,65.5,161.2,69.4,157.7,73.2z"/>
	<radialGradient id="SVGID_2_" cx="268.4353" cy="262.6932" r="108.5557" gradientUnits="userSpaceOnUse">
		<stop  offset="0" style="stop-color:#93403E"/>
		<stop  offset="1" style="stop-color:#520B07"/>
	</radialGradient>
	<path class="st4" d="M160.1,250.2c-0.5,5.7-0.9,11.7-1.1,17.9c-0.4,12.6,0.1,24.2,1.1,34.8c1.7-0.1,4.1-0.3,7.1-0.7
		c0,0,10.5-1.3,21.5-4.3c21.9-5.9,38.8-15.7,38.8-15.7c21.3-12.3,34.9-27.4,42.1-36.5c17.7-22.5,25-45.1,28.1-58.3
		c2.2-9.6,6-29.9,2.5-55c-1-6.8-2.2-12.4-3.3-16.5c-0.3,2.7-0.7,6.2-1.5,10.4c0,0-2,10.9-6.3,22.1c-7.6,20.2-21.4,38.3-23,40.3
		c-5.9,7.6-20.4,25.1-44.4,40.5c-9.9,6.3-22.1,14-40.2,18.2C172.9,249.4,165.5,250,160.1,250.2z"/>
	<radialGradient id="SVGID_3_" cx="150.6413" cy="124.261" r="181.6369" gradientUnits="userSpaceOnUse">
		<stop  offset="0" style="stop-color:#93403E"/>
		<stop  offset="0.104" style="stop-color:#81322F"/>
		<stop  offset="0.2686" style="stop-color:#6C211D"/>
		<stop  offset="0.4525" style="stop-color:#5D1411"/>
		<stop  offset="0.6691" style="stop-color:#550D09"/>
		<stop  offset="1" style="stop-color:#520B07"/>
	</radialGradient>
	<path class="st5" d="M60.8,28.2c-0.1,6.2,0.3,14.7,2.7,24.5c1.5,6.2,5,20.4,16.1,34.8c14.9,19.5,34.1,27.2,41.3,29.7
		c5.2,1.8,20,6.4,39.3,4.2c11.1-1.2,32.8-5.7,51.5-23.2c3.7-3.5,13.4-13.1,20.3-28.8c7.7-17.4,8-33.1,7.6-41.3
		c1.3,2.8,3,6.8,4.5,11.6c0.7,2.3,4.1,13.7,4,29c-0.2,24.5-9.2,43.1-10.9,46.4c-10.3,20.2-23.2,30.5-38.9,42
		c-15.5,11.3-28.8,6.1-37.1,34.5c-4,13.6-5.2,18.7-8.4,45.1c-0.5,3.9-1.1,14.8-1.5,21.8c-0.5,8.1-0.6,15-0.5,20.2
		c0,8.1,0.1,16.1,0.1,24.2c-0.4,0-0.9,0-1.3,0c0-8.1,0-16.2,0-24.2c0-5.7,0-12.4-0.4-20c-0.5-10.4-1.3-18.4-1.6-21.2
		c-2.3-25.9-8.9-50.7-12.6-57c-7.2-12-13.6-12.6-21.9-16.8c-25.1-12.4-38.2-31.3-39.9-33.5c-9.1-12.3-13.4-23.6-15-28.4
		c-6.8-19.7-5.8-36.4-5.3-42.2C53.9,46.3,57.6,35.6,60.8,28.2z"/>
	<path class="st6" d="M60.9,28.6c0,3.8,0.2,9.3,1.2,15.6C63,50,65.9,67.9,76.6,84.1c20.2,30.7,56.4,36.5,60.7,37.2
		c24.6,3.6,43.7-4.1,50.8-7.3c20.4-9.4,31.5-23.7,34.5-27.8c15.7-21.4,16.8-43.9,17.1-51.2c0.1-2.7,0.1-5,0-6.5
		c3.1,5.5,5.8,16.3,6.4,20.2c0.1,2.2,0.2,5.1,0,8.6c-0.1,1.5-0.6,10.6-3.6,19.8c-4.6,14.5-13.6,24.8-17,28.6
		c-15.5,17.3-33.8,24-40.7,26.4c-5.2,1.8-27.2,9.1-55.1,3.8c-19.6-3.7-32.7-11.8-35.5-13.6c-6-3.8-19.5-12.6-29.4-29.5
		c-2.6-4.4-9.5-16.5-10.8-33.2c-0.2-2-0.2-3.6-0.2-4.7C53.8,49.3,58.4,33.5,60.9,28.6z"/>
	<linearGradient id="SVGID_4_" gradientUnits="userSpaceOnUse" x1="172.7543" y1="146.3696" x2="270.5874" y2="149.312">
		<stop  offset="0" style="stop-color:#520B07"/>
		<stop  offset="0.2505" style="stop-color:#6E221F"/>
		<stop  offset="0.5045" style="stop-color:#823330"/>
		<stop  offset="0.7559" style="stop-color:#8F3D3A"/>
		<stop  offset="1" style="stop-color:#93403E"/>
	</linearGradient>
	<path class="st7" d="M273,61.7c2,3.9,4.5,9.5,6.5,16.5c6.6,22.7,3,41.9,1.1,51.8c-6.7,33.8-25.7,55.8-30.6,61.3
		c-33.2,36.7-77.5,41.5-88.4,42.3c0.5-5.3,1.3-11,2.4-17.1c2.1-11.1,3-16.7,5.2-21.2c6.3-13,13.8-17.5,20.3-20.3
		c10.4-4.5,29.1-7.2,43.7-22.5c3.8-4,16.9-15.3,26.8-35C271.4,95,273,73.8,273,61.7z"/>
	<linearGradient id="SVGID_5_" gradientUnits="userSpaceOnUse" x1="268.6353" y1="119.45" x2="172.4826" y2="212.7467">
		<stop  offset="0" style="stop-color:#520B07"/>
		<stop  offset="0.3309" style="stop-color:#550D09"/>
		<stop  offset="0.5475" style="stop-color:#5D1411"/>
		<stop  offset="0.7314" style="stop-color:#6C211D"/>
		<stop  offset="0.896" style="stop-color:#81322F"/>
		<stop  offset="1" style="stop-color:#93403E"/>
	</linearGradient>
	<path class="st8" d="M273.1,61.1c1.8,13.8,4.1,63.8-34.5,125c-6.4,10.1-19,25.9-37.9,36.5c-6.2,3.5-11.8,5.7-15.8,7.1
		c1.5-0.4,3.5-0.9,5.9-1.6c1.5-0.4,8.8-2.5,17.2-6.5C290.4,182.2,292.7,95.1,273.1,61.1z"/>
	<radialGradient id="SVGID_6_" cx="152.4505" cy="256.3897" r="156.7538" gradientUnits="userSpaceOnUse">
		<stop  offset="0" style="stop-color:#93403E"/>
		<stop  offset="8.312225e-02" style="stop-color:#863633"/>
		<stop  offset="0.2738" style="stop-color:#6F2320"/>
		<stop  offset="0.4788" style="stop-color:#5F1512"/>
		<stop  offset="0.7061" style="stop-color:#550E0A"/>
		<stop  offset="1" style="stop-color:#520B07"/>
	</radialGradient>
	<path class="st9" d="M296.3,116c1.2,14.8,1.1,50-9,75.7c-6.9,17.8-16.5,29-23.1,35.3c-6.9,6.6-26.1,17.4-36.2,20.8
		c-17.8,5.9-36.1,8.3-41.5,10.6c-3.2,1.3-11.2,4.1-17.4,11.1c-11.3,12.9-9.8,29.7-9.4,33.5c0.6,0,1.5-0.1,2.6-0.2
		c5.9-0.6,19.1-2.2,35.6-7.6c4.2-1.4,11.5-3.8,20.5-8.2c16.6-8.2,28.6-18.1,36.2-25.3c7.9-7.5,18.2-18.9,27.1-34.7
		c3.7-6.6,9.4-17.9,13.6-32.7c1.4-4.9,4.9-18.4,5.5-36.2c0.4-11.5-0.6-20.2-1-23.6C299,127.2,297.6,120.9,296.3,116z"/>
	
		<radialGradient id="SVGID_7_" cx="79.1184" cy="262.6932" r="108.5557" gradientTransform="matrix(-1 0 0 1 111.5975 0)" gradientUnits="userSpaceOnUse">
		<stop  offset="0" style="stop-color:#93403E"/>
		<stop  offset="1" style="stop-color:#520B07"/>
	</radialGradient>
	<path class="st10" d="M140.8,250.2c0.5,5.7,0.9,11.7,1.1,17.9c0.4,12.6-0.1,24.2-1.1,34.8c-1.7-0.1-4.1-0.3-7.1-0.7
		c0,0-10.5-1.3-21.5-4.3c-21.9-5.9-38.8-15.7-38.8-15.7c-21.3-12.3-34.9-27.4-42.1-36.5c-17.7-22.5-25-45.1-28.1-58.3
		c-2.2-9.6-6-29.9-2.5-55c1-6.8,2.2-12.4,3.3-16.5c0.3,2.7,0.7,6.2,1.5,10.4c0,0,2,10.9,6.3,22.1c7.6,20.2,21.4,38.3,23,40.3
		c5.9,7.6,20.4,25.1,44.4,40.5c9.9,6.3,22.1,14,40.2,18.2C128,249.4,135.5,250,140.8,250.2z"/>
	
		<linearGradient id="SVGID_8_" gradientUnits="userSpaceOnUse" x1="-16.5626" y1="146.3696" x2="81.2705" y2="149.312" gradientTransform="matrix(-1 0 0 1 111.5975 0)">
		<stop  offset="0" style="stop-color:#520B07"/>
		<stop  offset="0.2505" style="stop-color:#6E221F"/>
		<stop  offset="0.5045" style="stop-color:#823330"/>
		<stop  offset="0.7559" style="stop-color:#8F3D3A"/>
		<stop  offset="1" style="stop-color:#93403E"/>
	</linearGradient>
	<path class="st11" d="M27.9,61.7c-2,3.9-4.5,9.5-6.5,16.5c-6.6,22.7-3,41.9-1.1,51.8C27,163.9,46,185.9,51,191.4
		c33.2,36.7,77.5,41.5,88.4,42.3c-0.5-5.3-1.3-11-2.4-17.1c-2.1-11.1-3-16.7-5.2-21.2c-6.3-13-13.8-17.5-20.3-20.3
		c-10.4-4.5-29.1-7.2-43.7-22.5c-3.8-4-16.9-15.3-26.8-35C29.5,95,27.9,73.8,27.9,61.7z"/>
	
		<linearGradient id="SVGID_9_" gradientUnits="userSpaceOnUse" x1="79.3184" y1="119.45" x2="-16.8343" y2="212.7467" gradientTransform="matrix(-1 0 0 1 111.5975 0)">
		<stop  offset="0" style="stop-color:#520B07"/>
		<stop  offset="0.3309" style="stop-color:#550D09"/>
		<stop  offset="0.5475" style="stop-color:#5D1411"/>
		<stop  offset="0.7314" style="stop-color:#6C211D"/>
		<stop  offset="0.896" style="stop-color:#81322F"/>
		<stop  offset="1" style="stop-color:#93403E"/>
	</linearGradient>
	<path class="st12" d="M27.8,61.1c-1.8,13.8-4.1,63.8,34.5,125c6.4,10.1,19,25.9,37.9,36.5c6.2,3.5,11.8,5.7,15.8,7.1
		c-1.5-0.4-3.5-0.9-5.9-1.6c-1.5-0.4-8.8-2.5-17.2-6.5C10.5,182.2,8.2,95.1,27.8,61.1z"/>
	
		<radialGradient id="SVGID_10_" cx="-36.8664" cy="256.3897" r="156.7538" gradientTransform="matrix(-1 0 0 1 111.5975 0)" gradientUnits="userSpaceOnUse">
		<stop  offset="0" style="stop-color:#93403E"/>
		<stop  offset="8.312225e-02" style="stop-color:#863633"/>
		<stop  offset="0.2738" style="stop-color:#6F2320"/>
		<stop  offset="0.4788" style="stop-color:#5F1512"/>
		<stop  offset="0.7061" style="stop-color:#550E0A"/>
		<stop  offset="1" style="stop-color:#520B07"/>
	</radialGradient>
	<path class="st13" d="M4.6,116c-1.2,14.8-1.1,50,9,75.7c6.9,17.8,16.5,29,23.1,35.3c6.9,6.6,26.1,17.4,36.2,20.8
		c17.8,5.9,36.1,8.3,41.5,10.6c3.2,1.3,11.2,4.1,17.4,11.1c11.3,12.9,9.8,29.7,9.4,33.5c-0.6,0-1.5-0.1-2.6-0.2
		c-5.9-0.6-19.1-2.2-35.6-7.6c-4.2-1.4-11.5-3.8-20.5-8.2c-16.6-8.2-28.6-18.1-36.2-25.3c-7.9-7.5-18.2-18.9-27.1-34.7
		c-3.7-6.6-9.4-17.9-13.6-32.7c-1.4-4.9-4.9-18.4-5.5-36.2c-0.4-11.5,0.6-20.2,1-23.6C1.9,127.2,3.3,120.9,4.6,116z"/>
</g>
</svg>
